<svg xmlns="http://www.w3.org/2000/svg" viewBox="0 0 359.69 44.03"><g id="Layer_2" data-name="Layer 2"><g id="Layer_2-2" data-name="Layer 2"><path d="M23.91,13.88l1,1.75h-22V11h24v2.92L13,48.69H8.4l-.59-.58Z" transform="translate(-2.92 -5.54)"/><path d="M31.61,12V9.62h8.16v3.21h-.58Zm8.74,33.54,7.59.87v2.33H31.61V46.36l7.58-.87ZM37.15,27.7c0-6,0-12.07-.18-18.08h5.6c-.17,5.89-.17,12-.17,18.08v2.22c0,6.7,0,12.77.17,18.77H37c.18-5.89.18-11.95.18-18.07ZM55.93,9.62l2.62,2.92H39.77V9.62H60.59L61,20H57.73ZM53.42,30.09H39.77V27.41H53.42ZM51.55,28l.88-6.18h2.62v14.4H52.43l-.88-6.47Z" transform="translate(-2.92 -5.54)"/><path d="M99.08,39.54c0-3.79-2.28-5.48-7.35-7.47l-2.22-.87c-5.94-2.33-10-5.72-10-11.67,0-6.7,5.66-10.78,13.07-10.78a15.41,15.41,0,0,1,9.5,3.09l-.35,7.58H98.2l-1.63-8.81,3.73,1.93v2.91c-2.85-2.8-5-3.79-8.1-3.79-4.55,0-8,2.28-8,6.65,0,3.67,2.39,5.83,6.65,7.46l2.27.88c7.7,3,10.67,6.36,10.67,11.84C103.8,45.37,98,49.57,90,49.57a22.34,22.34,0,0,1-11.31-3.09l.35-8.17h3.49l1.52,9L80.3,45.66v-2.8c3.62,2.63,5.6,3.79,9.56,3.79C95.41,46.65,99.08,44.09,99.08,39.54Z" transform="translate(-2.92 -5.54)"/><path d="M108.82,35c0-9.68,6.59-14.7,13.29-14.7s13.3,5,13.3,14.7-6.71,14.46-13.3,14.46S108.82,44.67,108.82,35Zm21.34,0c0-7.82-3-12.07-8-12.07s-8,4.25-8,12.07,2.86,11.84,8,11.84S130.16,42.8,130.16,35Z" transform="translate(-2.92 -5.54)"/><path d="M145.44,34.41c0,7.34,3.91,11.37,9.39,11.37A9.4,9.4,0,0,0,163,41.23l1.4.7c-1.57,4.84-5.3,7.52-10.79,7.52-8,0-13-5.6-13-14.52,0-9.16,6.41-14.64,13.35-14.64,5.19,0,9.51,3.21,10.27,7.53A2.41,2.41,0,0,1,161.59,30c-1.92,0-2.68-1.16-3.09-2.62L157,22.22l2.69,2.16a12.17,12.17,0,0,0-5.6-1.46C149.05,22.92,145.44,26.94,145.44,34.41Z" transform="translate(-2.92 -5.54)"/><path d="M172.91,48.69c.11-2.62.17-8.63.17-12.24V33.71c0-3.21-.06-5-.17-7.35l-4.79-.53v-2l8.81-3.5.87.59-.17,7.87v7.7c0,3.61.06,9.62.17,12.24Zm9-2v2H168.47v-2l6.42-1.16h1.16ZM171.45,10a3.85,3.85,0,1,1,3.85,3.67A3.63,3.63,0,0,1,171.45,10Z" transform="translate(-2.92 -5.54)"/><path d="M196,33.41A63.51,63.51,0,0,1,205,31v2.09a53.29,53.29,0,0,0-7.82,2.34c-5.25,2-5.83,4.25-5.83,6,0,3.09,2,4.31,4.72,4.31,2,0,3.21-.76,6.89-3.38l1.16-.88.82,1.23-1.69,1.69c-3.5,3.5-5.48,5.13-9,5.13-4.26,0-7.82-2.45-7.82-7.29C186.43,38.9,188.18,36.27,196,33.41Zm6.71,9.92V30c0-5.71-1.64-7.11-5.49-7.11A13.49,13.49,0,0,0,192,24l2.34-1.81-1.52,5c-.52,1.7-1.4,2.63-3,2.63a2.39,2.39,0,0,1-2.63-2.33c1.11-4.44,5.43-7.18,11.26-7.18,6,0,8.92,2.74,8.92,10.09V42.75c0,2.62.82,3.55,2.16,3.55A2.87,2.87,0,0,0,211.8,45L213,46.3c-1.4,2.22-3,3-5,3C204.8,49.28,202.71,46.94,202.71,43.33Z" transform="translate(-2.92 -5.54)"/><path d="M223.76,5.54l.81.46-.23,8.29V36.45q0,6.12.17,12.24h-5q.18-6.12.17-12.24V10.79l-4.84-.59v-2Zm5.42,41.11v2H214.83v-2l6.59-1.16h1.17Z" transform="translate(-2.92 -5.54)"/><path d="M277.41,42.92v3.21l-3.62.81,1.46-8.63h3.56l-.24,8.46a24.53,24.53,0,0,1-11.78,2.8c-11.78,0-19.71-8.52-19.71-20.41,0-11.67,8.28-20.41,19.66-20.41A22.54,22.54,0,0,1,278,11.54l.23,8.46h-3.55l-1.46-8.63,3.61.82v3.55a13.6,13.6,0,0,0-9.39-4.08c-7.87,0-14.22,6.13-14.22,17.5S258.92,46.65,267,46.65A16.17,16.17,0,0,0,277.41,42.92Z" transform="translate(-2.92 -5.54)"/><path d="M291.52,5.54l.81.46-.23,8.29V36.45q0,6.12.18,12.24h-5q.18-6.12.18-12.24V10.79l-4.85-.59v-2Zm5.42,41.11v2H282.59v-2l6.59-1.16h1.17Z" transform="translate(-2.92 -5.54)"/><path d="M308,38.37c0,5.19,1.52,7,4.73,7,3,0,6-1.46,8.92-4.37h1.22v3h-3l2-.87c-3.32,4.49-7.29,6.35-11.08,6.35-4.66,0-7.58-2.8-7.52-10.49l.17-15.4,1.23,1.11-5.43-1.17v-2l8.4-.76.58.58L308,29.45Zm13.88,10.79L321,42.34l.17-18.78,1.23,1.11L317,23.5v-2l8.28-.76.59.58-.18,8.17V46.89l-1.4-1.4,5.43,1.16v2Z" transform="translate(-2.92 -5.54)"/><path d="M333.5,46.65l6.3-1.16-1.92,3.2c.11-2.62.17-8.63.17-12.24V10.79l-4.84-.59v-2L342,5.54l.82.46-.24,8.29V25.48l.18.76V44.09l-.59,5.19-8.63-.59Zm24.15-11.54c0-7.53-3.09-11.61-7.53-11.61-2.09,0-4.95.93-9.21,5.19l-.53-1.05c3.39-5.13,7.18-7.35,11.14-7.35,6.19,0,11.08,5.31,11.08,14.29s-5.13,14.87-12,14.87c-3.56,0-7.17-1.57-10.27-7.64l.53-.93c3,3.85,6.18,5.37,8.92,5.37C354,46.25,357.65,42.63,357.65,35.11Z" transform="translate(-2.92 -5.54)"/></g></g></svg>