<svg xmlns="http://www.w3.org/2000/svg" viewBox="0 0 1131.99 174.03"><defs><style>.cls-1{font-size:21px;fill:#aa7e3f;font-family:MyriadPro-Regular, Myriad Pro;}.cls-2{letter-spacing:-0.01em;}.cls-3{letter-spacing:-0.01em;}.cls-4{letter-spacing:0em;}.cls-5{letter-spacing:0.01em;}.cls-6{letter-spacing:-0.01em;}.cls-7{letter-spacing:0em;}.cls-8{letter-spacing:-0.01em;}.cls-9{letter-spacing:-0.01em;}.cls-10{letter-spacing:-0.01em;}.cls-11{letter-spacing:-0.01em;}.cls-12{letter-spacing:-0.01em;}.cls-13{font-family:BebasNeue, Bebas Neue;}.cls-13,.cls-14{fill:#000;}.cls-15{letter-spacing:0.01em;}.cls-16{letter-spacing:-0.01em;}.cls-17{letter-spacing:0em;}.cls-18{letter-spacing:0.02em;}.cls-19{letter-spacing:0.01em;}.cls-20{letter-spacing:0em;}.cls-21{letter-spacing:0em;}.cls-22{letter-spacing:0em;}.cls-23{letter-spacing:0em;}.cls-24{letter-spacing:-0.04em;}.cls-25{letter-spacing:-0.03em;}.cls-26{letter-spacing:-0.04em;}.cls-27{letter-spacing:-0.01em;}.cls-28{letter-spacing:-0.01em;}.cls-29{letter-spacing:-0.01em;}.cls-30{letter-spacing:-0.01em;}.cls-31{letter-spacing:-0.03em;}.cls-32{letter-spacing:-0.01em;}.cls-33{letter-spacing:0em;}.cls-34{letter-spacing:0.02em;}.cls-35{letter-spacing:0.01em;}.cls-36{letter-spacing:-0.04em;}.cls-37{letter-spacing:0em;}.cls-38{letter-spacing:-0.02em;}</style></defs><g id="Layer_2" data-name="Layer 2"><g id="Layer_2-2" data-name="Layer 2"><text class="cls-1" transform="translate(188.09 17.58)"><tspan class="cls-2">T</tspan><tspan x="10.29" y="0">he goal </tspan><tspan class="cls-3" x="79.71" y="0">f</tspan><tspan class="cls-4" x="85.57" y="0">or 7F </tspan><tspan class="cls-5" x="133.87" y="0">S</tspan><tspan x="144.35" y="0">ocial Club is </tspan><tspan class="cls-6" x="252.52" y="0">t</tspan><tspan x="259.35" y="0">o en</tspan><tspan class="cls-6" x="297.5" y="0">c</tspan><tspan x="306.78" y="0">ou</tspan><tspan class="cls-7" x="329.88" y="0">r</tspan><tspan x="336.65" y="0">age </tspan><tspan class="cls-2" x="373.48" y="0">o</tspan><tspan x="384.86" y="0">wnership and self </tspan><tspan class="cls-8" x="543.09" y="0">g</tspan><tspan class="cls-9" x="554.71" y="0">r</tspan><tspan class="cls-10" x="561.36" y="0">o</tspan><tspan x="572.75" y="0">wth </tspan><tspan class="cls-11" x="611.26" y="0">t</tspan><tspan x="618.08" y="0">o our member</tspan><tspan class="cls-12" x="743.37" y="0">s</tspan><tspan x="751.45" y="0">.</tspan><tspan class="cls-13"><tspan x="377.9" y="25.2"></tspan><tspan x="377.9" y="50.4"></tspan></tspan><tspan class="cls-14"><tspan x="-188.09" y="75.6">7F </tspan><tspan class="cls-15" x="-162.64" y="75.6">S</tspan><tspan class="cls-4" x="-152.16" y="75.6">ocial Club is an i</tspan><tspan class="cls-3" x="-12.85" y="75.6">n</tspan><tspan class="cls-16" x="-1.47" y="75.6">v</tspan><tspan class="cls-17" x="8.42" y="75.6">es</tspan><tspan class="cls-6" x="27.26" y="75.6">t</tspan><tspan x="34.08" y="75.6">or </tspan><tspan class="cls-8" x="56.93" y="75.6">g</tspan><tspan class="cls-9" x="68.54" y="75.6">r</tspan><tspan class="cls-4" x="75.2" y="75.6">oup sta</tspan><tspan class="cls-18" x="140.09" y="75.6">r</tspan><tspan class="cls-6" x="147.46" y="75.6">t</tspan><tspan class="cls-17" x="154.29" y="75.6">ed </tspan><tspan class="cls-2" x="181.1" y="75.6">b</tspan><tspan class="cls-4" x="192.9" y="75.6">y a small </tspan><tspan class="cls-6" x="272.14" y="75.6">c</tspan><tspan x="281.42" y="75.6">ommuni</tspan><tspan class="cls-19" x="356.11" y="75.6">t</tspan><tspan class="cls-4" x="363.25" y="75.6">y of e</tspan><tspan class="cls-20" x="410.23" y="75.6">n</tspan><tspan class="cls-4" x="421.8" y="75.6">t</tspan><tspan class="cls-16" x="428.75" y="75.6">r</tspan><tspan class="cls-17" x="435.41" y="75.6">ep</tspan><tspan class="cls-9" x="457.88" y="75.6">r</tspan><tspan class="cls-21" x="464.53" y="75.6">eneurs aspi</tspan><tspan class="cls-22" x="563.74" y="75.6">r</tspan><tspan x="570.69" y="75.6">ing </tspan><tspan class="cls-11" x="603.45" y="75.6">t</tspan><tspan x="610.27" y="75.6">o capitali</tspan><tspan class="cls-10" x="689.59" y="75.6">z</tspan><tspan x="698.43" y="75.6">e on being ea</tspan><tspan class="cls-22" x="816.91" y="75.6">r</tspan><tspan class="cls-23" x="823.86" y="75.6">ly </tspan><tspan class="cls-8" x="843.16" y="75.6">t</tspan><tspan x="849.98" y="75.6">o</tspan><tspan class="cls-24" x="861.51" y="75.6"> </tspan><tspan class="cls-25" x="865.21" y="75.6">W</tspan><tspan x="882.28" y="75.6">eb 3.0 ;</tspan><tspan class="cls-26" x="-140.02" y="100.8"> </tspan><tspan class="cls-25" x="-136.33" y="100.8">W</tspan><tspan class="cls-17" x="-119.26" y="100.8">e plan </tspan><tspan class="cls-6" x="-61.15" y="100.8">t</tspan><tspan x="-54.32" y="100.8">o scale a met</tspan><tspan class="cls-27" x="58.99" y="100.8">a</tspan><tspan class="cls-16" x="68.94" y="100.8">v</tspan><tspan class="cls-17" x="78.83" y="100.8">erse po</tspan><tspan class="cls-18" x="142.99" y="100.8">r</tspan><tspan x="150.36" y="100.8">t</tspan><tspan class="cls-28" x="157.31" y="100.8">f</tspan><tspan x="163.17" y="100.8">olio </tspan><tspan class="cls-3" x="200.55" y="100.8">f</tspan><tspan x="206.41" y="100.8">or our </tspan><tspan class="cls-29" x="263.67" y="100.8">D</tspan><tspan class="cls-30" x="277.37" y="100.8">A</tspan><tspan class="cls-31" x="289.9" y="100.8">O</tspan><tspan x="303.66" y="100.8">. all</tspan><tspan class="cls-32" x="332.49" y="100.8">o</tspan><tspan class="cls-17" x="343.87" y="100.8">wing members </tspan><tspan class="cls-11" x="479.74" y="100.8">t</tspan><tspan x="486.56" y="100.8">o be apa</tspan><tspan class="cls-18" x="561.66" y="100.8">r</tspan><tspan class="cls-23" x="569.03" y="100.8">t of wh</tspan><tspan class="cls-33" x="629.66" y="100.8">a</tspan><tspan x="639.69" y="100.8">t </tspan><tspan class="cls-9" x="651.1" y="100.8">w</tspan><tspan x="666.34" y="100.8">e belie</tspan><tspan class="cls-9" x="724.17" y="100.8">v</tspan><tspan class="cls-21" x="734.06" y="100.8">e is </tspan><tspan class="cls-22" x="766.72" y="100.8">R</tspan><tspan class="cls-21" x="778.1" y="100.8">eal Est</tspan><tspan class="cls-20" x="833.75" y="100.8">a</tspan><tspan class="cls-11" x="843.79" y="100.8">t</tspan><tspan class="cls-21" x="850.61" y="100.8">e 2.0,</tspan><tspan x="66.67" y="126"> </tspan><tspan class="cls-32" x="71.13" y="126">b</tspan><tspan x="82.93" y="126">y alloc</tspan><tspan class="cls-20" x="138.24" y="126">a</tspan><tspan x="148.28" y="126">ting funds f</tspan><tspan class="cls-9" x="248.09" y="126">r</tspan><tspan class="cls-4" x="254.75" y="126">om mi</tspan><tspan class="cls-20" x="310.67" y="126">n</tspan><tspan class="cls-4" x="322.24" y="126">t </tspan><tspan class="cls-8" x="333.64" y="126">t</tspan><tspan x="340.47" y="126">o pu</tspan><tspan class="cls-9" x="379.97" y="126">r</tspan><tspan x="386.63" y="126">chase our first met</tspan><tspan class="cls-27" x="548.07" y="126">a</tspan><tspan class="cls-9" x="558.03" y="126">v</tspan><tspan x="567.92" y="126">erse p</tspan><tspan class="cls-9" x="620.54" y="126">r</tspan><tspan class="cls-23" x="627.2" y="126">ope</tspan><tspan class="cls-34" x="661.2" y="126">r</tspan><tspan class="cls-35" x="668.57" y="126">t</tspan><tspan class="cls-36" x="675.71" y="126">y</tspan><tspan x="684.78" y="126">.</tspan><tspan class="cls-2" x="218.93" y="151.2">T</tspan><tspan x="229.22" y="151.2">his will be the o</tspan><tspan class="cls-37" x="365.32" y="151.2">r</tspan><tspan class="cls-17" x="372.27" y="151.2">i</tspan><tspan class="cls-8" x="377.19" y="151.2">g</tspan><tspan x="388.8" y="151.2">inal 7Fsocialclu</tspan><tspan class="cls-38" x="521.08" y="151.2">b</tspan><tspan class="cls-21" x="532.52" y="151.2">.</tspan></tspan></text></g></g></svg>